<svg width="27" height="31" viewBox="0 0 27 31" fill="none" xmlns="http://www.w3.org/2000/svg">
<path d="M9.42975 10.6245C9.47815 10.4784 9.57137 10.3512 9.69618 10.261C9.82099 10.1709 9.97104 10.1224 10.125 10.1224C10.279 10.1224 10.429 10.1709 10.5538 10.261C10.6786 10.3512 10.7719 10.4784 10.8203 10.6245L12.1264 14.5463C12.7103 16.2945 14.0805 17.6648 15.8288 18.2486L19.7505 19.5548C19.8967 19.6032 20.0238 19.6964 20.114 19.8212C20.2041 19.946 20.2527 20.0961 20.2527 20.25C20.2527 20.404 20.2041 20.554 20.114 20.6788C20.0238 20.8036 19.8967 20.8969 19.7505 20.9453L15.8288 22.2514C14.966 22.5377 14.1821 23.0215 13.5393 23.6643C12.8965 24.3071 12.4127 25.091 12.1264 25.9538L10.8203 29.8755C10.7719 30.0217 10.6786 30.1489 10.5538 30.239C10.429 30.3291 10.279 30.3777 10.125 30.3777C9.97104 30.3777 9.82099 30.3291 9.69618 30.239C9.57137 30.1489 9.47815 30.0217 9.42975 29.8755L8.12363 25.9538C7.8373 25.091 7.35348 24.3071 6.71072 23.6643C6.06795 23.0215 5.28399 22.5377 4.42125 22.2514L0.499501 20.9453C0.353345 20.8969 0.226159 20.8036 0.136012 20.6788C0.0458662 20.554 -0.00265503 20.404 -0.00265503 20.25C-0.00265503 20.0961 0.0458662 19.946 0.136012 19.8212C0.226159 19.6964 0.353345 19.6032 0.499501 19.5548L4.42125 18.2486C5.28399 17.9623 6.06795 17.4785 6.71072 16.8357C7.35348 16.193 7.8373 15.409 8.12363 14.5463L9.42975 10.6245ZM19.7876 0.334137C19.8209 0.238039 19.8834 0.154709 19.9662 0.0957327C20.0491 0.0367569 20.1483 0.00506592 20.25 0.00506592C20.3517 0.00506592 20.4509 0.0367569 20.5338 0.0957327C20.6166 0.154709 20.6791 0.238039 20.7124 0.334137L21.5831 2.94639C21.9713 4.11414 22.8859 5.02876 24.0536 5.41689L26.6659 6.28764C26.762 6.32095 26.8453 6.38339 26.9043 6.46625C26.9633 6.54912 26.9949 6.6483 26.9949 6.75001C26.9949 6.85172 26.9633 6.95091 26.9043 7.03377C26.8453 7.11664 26.762 7.17907 26.6659 7.21239L24.0536 8.08314C23.4787 8.27551 22.9562 8.5988 22.5275 9.02752C22.0988 9.45623 21.7755 9.97867 21.5831 10.5536L20.7124 13.1659C20.6791 13.262 20.6166 13.3453 20.5338 13.4043C20.4509 13.4633 20.3517 13.495 20.25 13.495C20.1483 13.495 20.0491 13.4633 19.9662 13.4043C19.8834 13.3453 19.8209 13.262 19.7876 13.1659L18.9169 10.5536C18.7245 9.97867 18.4012 9.45623 17.9725 9.02752C17.5438 8.5988 17.0213 8.27551 16.4464 8.08314L13.8341 7.21239C13.738 7.17907 13.6547 7.11664 13.5957 7.03377C13.5367 6.95091 13.5051 6.85172 13.5051 6.75001C13.5051 6.6483 13.5367 6.54912 13.5957 6.46625C13.6547 6.38339 13.738 6.32095 13.8341 6.28764L16.4464 5.41689C17.6141 5.02876 18.5287 4.11414 18.9169 2.94639L19.7876 0.334137Z" fill="black"/>
</svg>
