<svg width="304" height="134" viewBox="0 0 304 134" fill="none" xmlns="http://www.w3.org/2000/svg">
<path d="M5 124.5C2.51472 124.5 0.5 126.515 0.5 129C0.5 131.485 2.51472 133.5 5 133.5V124.5ZM303.5 26L258.5 0.0192379V51.9808L303.5 26ZM9.70312 133.5C12.1884 133.5 14.2031 131.485 14.2031 129C14.2031 126.515 12.1884 124.5 9.70312 124.5V133.5ZM19.1094 124.5C16.6241 124.5 14.6094 126.515 14.6094 129C14.6094 131.485 16.6241 133.5 19.1094 133.5V124.5ZM28.5156 133.5C31.0009 133.5 33.0156 131.485 33.0156 129C33.0156 126.515 31.0009 124.5 28.5156 124.5V133.5ZM37.9219 124.5C35.4366 124.5 33.4219 126.515 33.4219 129C33.4219 131.485 35.4366 133.5 37.9219 133.5V124.5ZM47.3281 133.5C49.8134 133.5 51.8281 131.485 51.8281 129C51.8281 126.515 49.8134 124.5 47.3281 124.5V133.5ZM56.7344 124.5C54.2491 124.5 52.2344 126.515 52.2344 129C52.2344 131.485 54.2491 133.5 56.7344 133.5V124.5ZM66.1406 133.5C68.6259 133.5 70.6406 131.485 70.6406 129C70.6406 126.515 68.6259 124.5 66.1406 124.5V133.5ZM75.5469 124.5C73.0616 124.5 71.0469 126.515 71.0469 129C71.0469 131.485 73.0616 133.5 75.5469 133.5V124.5ZM84.9531 133.5C87.4384 133.5 89.4531 131.485 89.4531 129C89.4531 126.515 87.4384 124.5 84.9531 124.5V133.5ZM94.3594 124.5C91.8741 124.5 89.8594 126.515 89.8594 129C89.8594 131.485 91.8741 133.5 94.3594 133.5V124.5ZM103.766 133.5C106.251 133.5 108.266 131.485 108.266 129C108.266 126.515 106.251 124.5 103.766 124.5V133.5ZM113.172 124.5C110.687 124.5 108.672 126.515 108.672 129C108.672 131.485 110.687 133.5 113.172 133.5V124.5ZM122.578 133.5C125.063 133.5 127.078 131.485 127.078 129C127.078 126.515 125.063 124.5 122.578 124.5V133.5ZM131.984 124.5C129.499 124.5 127.484 126.515 127.484 129C127.484 131.485 129.499 133.5 131.984 133.5V124.5ZM141.391 133.5C143.876 133.5 145.891 131.485 145.891 129C145.891 126.515 143.876 124.5 141.391 124.5V133.5ZM150.797 124.5C148.312 124.5 146.297 126.515 146.297 129C146.297 131.485 148.312 133.5 150.797 133.5V124.5ZM160.986 133.234C163.459 132.994 165.269 130.793 165.029 128.32C164.788 125.846 162.588 124.036 160.114 124.277L160.986 133.234ZM169.15 122.488C166.771 123.209 165.427 125.721 166.148 128.1C166.869 130.478 169.381 131.822 171.76 131.102L169.15 122.488ZM181.906 126.895C184.097 125.721 184.922 122.994 183.748 120.803C182.575 118.613 179.847 117.788 177.657 118.961L181.906 126.895ZM185.315 113.835C183.395 115.412 183.117 118.248 184.695 120.168C186.273 122.089 189.108 122.366 191.028 120.789L185.315 113.835ZM198.789 113.028C200.366 111.108 200.089 108.273 198.168 106.695C196.248 105.117 193.412 105.395 191.835 107.315L198.789 113.028ZM196.961 99.6566C195.788 101.847 196.613 104.575 198.803 105.748C200.994 106.922 203.721 106.097 204.895 103.906L196.961 99.6566ZM209.102 93.7595C209.822 91.381 208.478 88.8687 206.1 88.1481C203.721 87.4274 201.209 88.7714 200.488 91.1499L209.102 93.7595ZM202.277 82.114C202.036 84.5876 203.846 86.7879 206.32 87.0287C208.793 87.2694 210.994 85.4593 211.234 82.9857L202.277 82.114ZM211.723 72.8861C211.964 70.4125 210.154 68.2121 207.68 67.9713C205.207 67.7306 203.006 69.5407 202.766 72.0143L211.723 72.8861ZM204.898 61.2405C204.178 63.619 205.522 66.1313 207.9 66.852C210.279 67.5726 212.791 66.2286 213.512 63.8501L204.898 61.2405ZM217.039 55.3434C218.212 53.1526 217.387 50.4254 215.197 49.2519C213.006 48.0785 210.279 48.9032 209.105 51.094L217.039 55.3434ZM215.211 41.9715C213.634 43.8918 213.911 46.7275 215.832 48.3052C217.752 49.8829 220.588 49.6052 222.165 47.685L215.211 41.9715ZM228.685 41.1654C230.605 39.5877 230.883 36.752 229.305 34.8317C227.727 32.9115 224.892 32.6338 222.972 34.2115L228.685 41.1654ZM232.094 28.1051C229.903 29.2785 229.078 32.0058 230.252 34.1966C231.425 36.3874 234.153 37.2122 236.343 36.0387L232.094 28.1051ZM244.85 32.5116C247.229 31.7909 248.573 29.2786 247.852 26.9001C247.131 24.5216 244.619 23.1776 242.24 23.8982L244.85 32.5116ZM253.014 21.7656C250.541 22.0063 248.731 24.2067 248.971 26.6803C249.212 29.1539 251.412 30.964 253.886 30.7233L253.014 21.7656ZM264.125 30.5C266.61 30.5 268.625 28.4853 268.625 26C268.625 23.5147 266.61 21.5 264.125 21.5V30.5ZM275.375 21.5C272.89 21.5 270.875 23.5147 270.875 26C270.875 28.4853 272.89 30.5 275.375 30.5V21.5ZM286.625 30.5C289.11 30.5 291.125 28.4853 291.125 26C291.125 23.5147 289.11 21.5 286.625 21.5V30.5ZM297.875 21.5C295.39 21.5 293.375 23.5147 293.375 26C293.375 28.4853 295.39 30.5 297.875 30.5V21.5ZM5 133.5H9.70312V124.5H5V133.5ZM19.1094 133.5H28.5156V124.5H19.1094V133.5ZM37.9219 133.5H47.3281V124.5H37.9219V133.5ZM56.7344 133.5H66.1406V124.5H56.7344V133.5ZM75.5469 133.5H84.9531V124.5H75.5469V133.5ZM94.3594 133.5H103.766V124.5H94.3594V133.5ZM113.172 133.5H122.578V124.5H113.172V133.5ZM131.984 133.5H141.391V124.5H131.984V133.5ZM150.797 133.5H155.5V124.5H150.797V133.5ZM155.5 133.5C157.35 133.5 159.18 133.41 160.986 133.234L160.114 124.277C158.597 124.424 157.058 124.5 155.5 124.5V133.5ZM171.76 131.102C175.304 130.028 178.699 128.613 181.906 126.895L177.657 118.961C174.966 120.402 172.12 121.589 169.15 122.488L171.76 131.102ZM191.028 120.789C193.861 118.461 196.461 115.861 198.789 113.028L191.835 107.315C189.879 109.695 187.695 111.879 185.315 113.835L191.028 120.789ZM204.895 103.906C206.613 100.699 208.028 97.3037 209.102 93.7595L200.488 91.1499C199.589 94.1199 198.402 96.9661 196.961 99.6566L204.895 103.906ZM211.234 82.9857C211.41 81.1797 211.5 79.3497 211.5 77.5H202.5C202.5 79.0581 202.424 80.5972 202.277 82.114L211.234 82.9857ZM211.5 77.5C211.5 75.9419 211.576 74.4028 211.723 72.8861L202.766 72.0143C202.59 73.8203 202.5 75.6504 202.5 77.5H211.5ZM213.512 63.8501C214.411 60.8801 215.598 58.0339 217.039 55.3434L209.105 51.094C207.387 54.3014 205.972 57.6964 204.898 61.2405L213.512 63.8501ZM222.165 47.685C224.121 45.3052 226.305 43.1207 228.685 41.1654L222.972 34.2115C220.139 36.5389 217.539 39.1388 215.211 41.9715L222.165 47.685ZM236.343 36.0387C239.034 34.5977 241.88 33.4114 244.85 32.5116L242.24 23.8982C238.696 24.972 235.301 26.3872 232.094 28.1051L236.343 36.0387ZM253.886 30.7233C255.403 30.5757 256.942 30.5 258.5 30.5V21.5C256.65 21.5 254.82 21.5898 253.014 21.7656L253.886 30.7233ZM258.5 30.5H264.125V21.5H258.5V30.5ZM275.375 30.5H286.625V21.5H275.375V30.5ZM5 124.5C2.51472 124.5 0.5 126.515 0.5 129C0.5 131.485 2.51472 133.5 5 133.5V124.5ZM303.5 26L258.5 0.0192379V51.9808L303.5 26ZM9.70312 133.5C12.1884 133.5 14.2031 131.485 14.2031 129C14.2031 126.515 12.1884 124.5 9.70312 124.5V133.5ZM19.1094 124.5C16.6241 124.5 14.6094 126.515 14.6094 129C14.6094 131.485 16.6241 133.5 19.1094 133.5V124.5ZM28.5156 133.5C31.0009 133.5 33.0156 131.485 33.0156 129C33.0156 126.515 31.0009 124.5 28.5156 124.5V133.5ZM37.9219 124.5C35.4366 124.5 33.4219 126.515 33.4219 129C33.4219 131.485 35.4366 133.5 37.9219 133.5V124.5ZM47.3281 133.5C49.8134 133.5 51.8281 131.485 51.8281 129C51.8281 126.515 49.8134 124.5 47.3281 124.5V133.5ZM56.7344 124.5C54.2491 124.5 52.2344 126.515 52.2344 129C52.2344 131.485 54.2491 133.5 56.7344 133.5V124.5ZM66.1406 133.5C68.6259 133.5 70.6406 131.485 70.6406 129C70.6406 126.515 68.6259 124.5 66.1406 124.5V133.5ZM75.5469 124.5C73.0616 124.5 71.0469 126.515 71.0469 129C71.0469 131.485 73.0616 133.5 75.5469 133.5V124.5ZM84.9531 133.5C87.4384 133.5 89.4531 131.485 89.4531 129C89.4531 126.515 87.4384 124.5 84.9531 124.5V133.5ZM94.3594 124.5C91.8741 124.5 89.8594 126.515 89.8594 129C89.8594 131.485 91.8741 133.5 94.3594 133.5V124.5ZM103.766 133.5C106.251 133.5 108.266 131.485 108.266 129C108.266 126.515 106.251 124.5 103.766 124.5V133.5ZM113.172 124.5C110.687 124.5 108.672 126.515 108.672 129C108.672 131.485 110.687 133.5 113.172 133.5V124.5ZM122.578 133.5C125.063 133.5 127.078 131.485 127.078 129C127.078 126.515 125.063 124.5 122.578 124.5V133.5ZM131.984 124.5C129.499 124.5 127.484 126.515 127.484 129C127.484 131.485 129.499 133.5 131.984 133.5V124.5ZM141.391 133.5C143.876 133.5 145.891 131.485 145.891 129C145.891 126.515 143.876 124.5 141.391 124.5V133.5ZM150.797 124.5C148.312 124.5 146.297 126.515 146.297 129C146.297 131.485 148.312 133.5 150.797 133.5V124.5ZM160.986 133.234C163.459 132.994 165.269 130.793 165.029 128.32C164.788 125.846 162.588 124.036 160.114 124.277L160.986 133.234ZM169.15 122.488C166.771 123.209 165.427 125.721 166.148 128.1C166.869 130.478 169.381 131.822 171.76 131.102L169.15 122.488ZM181.906 126.895C184.097 125.721 184.922 122.994 183.748 120.803C182.575 118.613 179.847 117.788 177.657 118.961L181.906 126.895ZM185.315 113.835C183.395 115.412 183.117 118.248 184.695 120.168C186.273 122.089 189.108 122.366 191.028 120.789L185.315 113.835ZM198.789 113.028C200.366 111.108 200.089 108.273 198.168 106.695C196.248 105.117 193.412 105.395 191.835 107.315L198.789 113.028ZM196.961 99.6566C195.788 101.847 196.613 104.575 198.803 105.748C200.994 106.922 203.721 106.097 204.895 103.906L196.961 99.6566ZM209.102 93.7595C209.822 91.381 208.478 88.8687 206.1 88.1481C203.721 87.4274 201.209 88.7714 200.488 91.1499L209.102 93.7595ZM202.277 82.114C202.036 84.5876 203.846 86.7879 206.32 87.0287C208.793 87.2694 210.994 85.4593 211.234 82.9857L202.277 82.114ZM211.723 72.8861C211.964 70.4125 210.154 68.2121 207.68 67.9713C205.207 67.7306 203.006 69.5407 202.766 72.0143L211.723 72.8861ZM204.898 61.2405C204.178 63.619 205.522 66.1313 207.9 66.852C210.279 67.5726 212.791 66.2286 213.512 63.8501L204.898 61.2405ZM217.039 55.3434C218.212 53.1526 217.387 50.4254 215.197 49.2519C213.006 48.0785 210.279 48.9032 209.105 51.094L217.039 55.3434ZM215.211 41.9715C213.634 43.8918 213.911 46.7275 215.832 48.3052C217.752 49.8829 220.588 49.6052 222.165 47.685L215.211 41.9715ZM228.685 41.1654C230.605 39.5877 230.883 36.752 229.305 34.8317C227.727 32.9115 224.892 32.6338 222.972 34.2115L228.685 41.1654ZM232.094 28.1051C229.903 29.2785 229.078 32.0058 230.252 34.1966C231.425 36.3874 234.153 37.2122 236.343 36.0387L232.094 28.1051ZM244.85 32.5116C247.229 31.7909 248.573 29.2786 247.852 26.9001C247.131 24.5216 244.619 23.1776 242.24 23.8982L244.85 32.5116ZM253.014 21.7656C250.541 22.0063 248.731 24.2067 248.971 26.6803C249.212 29.1539 251.412 30.964 253.886 30.7233L253.014 21.7656ZM264.125 30.5C266.61 30.5 268.625 28.4853 268.625 26C268.625 23.5147 266.61 21.5 264.125 21.5V30.5ZM275.375 21.5C272.89 21.5 270.875 23.5147 270.875 26C270.875 28.4853 272.89 30.5 275.375 30.5V21.5ZM286.625 30.5C289.11 30.5 291.125 28.4853 291.125 26C291.125 23.5147 289.11 21.5 286.625 21.5V30.5ZM297.875 21.5C295.39 21.5 293.375 23.5147 293.375 26C293.375 28.4853 295.39 30.5 297.875 30.5V21.5ZM5 133.5H9.70312V124.5H5V133.5ZM19.1094 133.5H28.5156V124.5H19.1094V133.5ZM37.9219 133.5H47.3281V124.5H37.9219V133.5ZM56.7344 133.5H66.1406V124.5H56.7344V133.5ZM75.5469 133.5H84.9531V124.5H75.5469V133.5ZM94.3594 133.5H103.766V124.5H94.3594V133.5ZM113.172 133.5H122.578V124.5H113.172V133.5ZM131.984 133.5H141.391V124.5H131.984V133.5ZM150.797 133.5H155.5V124.5H150.797V133.5ZM155.5 133.5C157.35 133.5 159.18 133.41 160.986 133.234L160.114 124.277C158.597 124.424 157.058 124.5 155.5 124.5V133.5ZM171.76 131.102C175.304 130.028 178.699 128.613 181.906 126.895L177.657 118.961C174.966 120.402 172.12 121.589 169.15 122.488L171.76 131.102ZM191.028 120.789C193.861 118.461 196.461 115.861 198.789 113.028L191.835 107.315C189.879 109.695 187.695 111.879 185.315 113.835L191.028 120.789ZM204.895 103.906C206.613 100.699 208.028 97.3037 209.102 93.7595L200.488 91.1499C199.589 94.1199 198.402 96.9661 196.961 99.6566L204.895 103.906ZM211.234 82.9857C211.41 81.1797 211.5 79.3497 211.5 77.5H202.5C202.5 79.0581 202.424 80.5972 202.277 82.114L211.234 82.9857ZM211.5 77.5C211.5 75.9419 211.576 74.4028 211.723 72.8861L202.766 72.0143C202.59 73.8203 202.5 75.6504 202.5 77.5H211.5ZM213.512 63.8501C214.411 60.8801 215.598 58.0339 217.039 55.3434L209.105 51.094C207.387 54.3014 205.972 57.6964 204.898 61.2405L213.512 63.8501ZM222.165 47.685C224.121 45.3052 226.305 43.1207 228.685 41.1654L222.972 34.2115C220.139 36.5389 217.539 39.1388 215.211 41.9715L222.165 47.685ZM236.343 36.0387C239.034 34.5977 241.88 33.4114 244.85 32.5116L242.24 23.8982C238.696 24.972 235.301 26.3872 232.094 28.1051L236.343 36.0387ZM253.886 30.7233C255.403 30.5757 256.942 30.5 258.5 30.5V21.5C256.65 21.5 254.82 21.5898 253.014 21.7656L253.886 30.7233ZM258.5 30.5H264.125V21.5H258.5V30.5ZM275.375 30.5H286.625V21.5H275.375V30.5Z" fill="black"/>
</svg>
