<svg width="155" height="518" viewBox="0 0 155 518" fill="none" xmlns="http://www.w3.org/2000/svg">
<path d="M126 518L154.868 468H97.1325L126 518ZM10 10C12.7614 10 15 7.76142 15 5C15 2.23858 12.7614 0 10 0V10ZM30 0C27.2386 0 25 2.23858 25 5C25 7.76142 27.2386 10 30 10V0ZM47.9484 10.3847C50.6969 10.6522 53.1417 8.64094 53.4092 5.8925C53.6767 3.14406 51.6655 0.699176 48.917 0.431696L47.9484 10.3847ZM66.4227 3.89674C63.7799 3.09605 60.9884 4.58937 60.1877 7.23216C59.3871 9.87495 60.8804 12.6664 63.5232 13.4671L66.4227 3.89674ZM78.1865 19.5471C80.6208 20.8509 83.6511 19.9345 84.9549 17.5003C86.2587 15.066 85.3423 12.0357 82.9081 10.7319L78.1865 19.5471ZM97.7328 20.6553C95.5992 18.9023 92.4484 19.2108 90.6954 21.3444C88.9424 23.478 89.2509 26.6288 91.3845 28.3818L97.7328 20.6553ZM102.618 39.6155C104.371 41.7491 107.522 42.0576 109.656 40.3046C111.789 38.5516 112.098 35.4008 110.345 33.2672L102.618 39.6155ZM120.268 48.0919C118.964 45.6577 115.934 44.7413 113.5 46.0451C111.065 47.3489 110.149 50.3792 111.453 52.8134L120.268 48.0919ZM117.533 67.4768C118.334 70.1196 121.125 71.613 123.768 70.8123C126.411 70.0116 127.904 67.2201 127.103 64.5773L117.533 67.4768ZM130.568 82.083C130.301 79.3345 127.856 77.3233 125.107 77.5908C122.359 77.8583 120.348 80.3032 120.615 83.0516L130.568 82.083ZM121 99.8958C121 102.657 123.239 104.896 126 104.896C128.761 104.896 131 102.657 131 99.8958H121ZM131 117.688C131 114.926 128.761 112.688 126 112.688C123.239 112.688 121 114.926 121 117.688H131ZM121 135.479C121 138.241 123.239 140.479 126 140.479C128.761 140.479 131 138.241 131 135.479H121ZM131 153.271C131 150.509 128.761 148.271 126 148.271C123.239 148.271 121 150.509 121 153.271H131ZM121 171.062C121 173.824 123.239 176.062 126 176.062C128.761 176.062 131 173.824 131 171.062H121ZM131 188.854C131 186.093 128.761 183.854 126 183.854C123.239 183.854 121 186.093 121 188.854H131ZM121 206.646C121 209.407 123.239 211.646 126 211.646C128.761 211.646 131 209.407 131 206.646H121ZM131 224.437C131 221.676 128.761 219.437 126 219.437C123.239 219.437 121 221.676 121 224.437H131ZM121 242.229C121 244.991 123.239 247.229 126 247.229C128.761 247.229 131 244.991 131 242.229H121ZM131 260.021C131 257.259 128.761 255.021 126 255.021C123.239 255.021 121 257.259 121 260.021H131ZM121 277.813C121 280.574 123.239 282.813 126 282.813C128.761 282.813 131 280.574 131 277.813H121ZM131 295.604C131 292.843 128.761 290.604 126 290.604C123.239 290.604 121 292.843 121 295.604H131ZM121 313.396C121 316.157 123.239 318.396 126 318.396C128.761 318.396 131 316.157 131 313.396H121ZM131 331.188C131 328.426 128.761 326.188 126 326.188C123.239 326.188 121 328.426 121 331.188H131ZM121 348.979C121 351.741 123.239 353.979 126 353.979C128.761 353.979 131 351.741 131 348.979H121ZM131 366.771C131 364.009 128.761 361.771 126 361.771C123.239 361.771 121 364.009 121 366.771H131ZM121 384.563C121 387.324 123.239 389.563 126 389.563C128.761 389.563 131 387.324 131 384.563H121ZM131 402.354C131 399.593 128.761 397.354 126 397.354C123.239 397.354 121 399.593 121 402.354H131ZM121 420.146C121 422.907 123.239 425.146 126 425.146C128.761 425.146 131 422.907 131 420.146H121ZM131 437.937C131 435.176 128.761 432.937 126 432.937C123.239 432.937 121 435.176 121 437.937H131ZM121 455.729C121 458.491 123.239 460.729 126 460.729C128.761 460.729 131 458.491 131 455.729H121ZM131 473.521C131 470.759 128.761 468.521 126 468.521C123.239 468.521 121 470.759 121 473.521H131ZM121 491.312C121 494.074 123.239 496.312 126 496.312C128.761 496.312 131 494.074 131 491.312H121ZM131 509.104C131 506.343 128.761 504.104 126 504.104C123.239 504.104 121 506.343 121 509.104H131ZM0 10H10V0H0V10ZM30 10H40V0H30V10ZM40 10C42.6833 10 45.3347 10.1303 47.9484 10.3847L48.917 0.431696C45.9819 0.146047 43.0073 0 40 0V10ZM63.5232 13.4671C68.6431 15.0183 73.5493 17.0633 78.1865 19.5471L82.9081 10.7319C77.6966 7.94053 72.1806 5.64122 66.4227 3.89674L63.5232 13.4671ZM91.3845 28.3818C95.4851 31.7509 99.2491 35.5149 102.618 39.6155L110.345 33.2672C106.562 28.6634 102.337 24.4378 97.7328 20.6553L91.3845 28.3818ZM111.453 52.8134C113.937 57.4507 115.982 62.3569 117.533 67.4768L127.103 64.5773C125.359 58.8194 123.059 53.3034 120.268 48.0919L111.453 52.8134ZM120.615 83.0516C120.87 85.6653 121 88.3167 121 91H131C131 87.9927 130.854 85.0181 130.568 82.083L120.615 83.0516ZM121 91V99.8958H131V91H121ZM121 117.688V135.479H131V117.688H121ZM121 153.271V171.062H131V153.271H121ZM121 188.854V206.646H131V188.854H121ZM121 224.437V242.229H131V224.437H121ZM121 260.021V277.813H131V260.021H121ZM121 295.604V313.396H131V295.604H121ZM121 331.188V348.979H131V331.188H121ZM121 366.771V384.563H131V366.771H121ZM121 402.354V420.146H131V402.354H121ZM121 437.937V455.729H131V437.937H121ZM121 473.521V491.312H131V473.521H121Z" fill="black"/>
</svg>
