<svg width="97" height="52" viewBox="0 0 97 52" fill="none" xmlns="http://www.w3.org/2000/svg">
<path d="M92 30.5C94.4853 30.5 96.5 28.4853 96.5 26C96.5 23.5147 94.4853 21.5 92 21.5V30.5ZM0 26L45 51.9808L45 0.0192379L0 26ZM4.6 30.5C7.08528 30.5 9.1 28.4853 9.1 26C9.1 23.5147 7.08528 21.5 4.6 21.5L4.6 30.5ZM13.8 21.5C11.3147 21.5 9.3 23.5147 9.3 26C9.3 28.4853 11.3147 30.5 13.8 30.5L13.8 21.5ZM23 30.5C25.4853 30.5 27.5 28.4853 27.5 26C27.5 23.5147 25.4853 21.5 23 21.5V30.5ZM32.2 21.5C29.7147 21.5 27.7 23.5147 27.7 26C27.7 28.4853 29.7147 30.5 32.2 30.5V21.5ZM41.4 30.5C43.8853 30.5 45.9 28.4853 45.9 26C45.9 23.5147 43.8853 21.5 41.4 21.5V30.5ZM50.6 21.5C48.1147 21.5 46.1 23.5147 46.1 26C46.1 28.4853 48.1147 30.5 50.6 30.5V21.5ZM59.8 30.5C62.2853 30.5 64.3 28.4853 64.3 26C64.3 23.5147 62.2853 21.5 59.8 21.5V30.5ZM69 21.5C66.5147 21.5 64.5 23.5147 64.5 26C64.5 28.4853 66.5147 30.5 69 30.5V21.5ZM78.2 30.5C80.6853 30.5 82.7 28.4853 82.7 26C82.7 23.5147 80.6853 21.5 78.2 21.5V30.5ZM87.4 21.5C84.9147 21.5 82.9 23.5147 82.9 26C82.9 28.4853 84.9147 30.5 87.4 30.5V21.5ZM13.8 30.5L23 30.5V21.5L13.8 21.5L13.8 30.5ZM32.2 30.5L41.4 30.5V21.5L32.2 21.5V30.5ZM50.6 30.5H59.8V21.5H50.6V30.5ZM69 30.5L78.2 30.5V21.5L69 21.5V30.5ZM87.4 30.5H92V21.5H87.4V30.5Z" fill="black"/>
</svg>
