<svg width="146" height="177" viewBox="0 0 146 177" fill="none" xmlns="http://www.w3.org/2000/svg">
<path d="M136.5 172C136.5 174.485 138.515 176.5 141 176.5C143.485 176.5 145.5 174.485 145.5 172H136.5ZM0 26L45 51.9808V0.0192379L0 26ZM5.0625 30.5C7.54778 30.5 9.5625 28.4853 9.5625 26C9.5625 23.5147 7.54778 21.5 5.0625 21.5V30.5ZM15.1875 21.5C12.7022 21.5 10.6875 23.5147 10.6875 26C10.6875 28.4853 12.7022 30.5 15.1875 30.5V21.5ZM25.3125 30.5C27.7978 30.5 29.8125 28.4853 29.8125 26C29.8125 23.5147 27.7978 21.5 25.3125 21.5V30.5ZM35.4375 21.5C32.9522 21.5 30.9375 23.5147 30.9375 26C30.9375 28.4853 32.9522 30.5 35.4375 30.5V21.5ZM45.5625 30.5C48.0478 30.5 50.0625 28.4853 50.0625 26C50.0625 23.5147 48.0478 21.5 45.5625 21.5V30.5ZM55.6875 21.5C53.2022 21.5 51.1875 23.5147 51.1875 26C51.1875 28.4853 53.2022 30.5 55.6875 30.5V21.5ZM65.8125 30.5C68.2978 30.5 70.3125 28.4853 70.3125 26C70.3125 23.5147 68.2978 21.5 65.8125 21.5V30.5ZM75.9375 21.5C73.4522 21.5 71.4375 23.5147 71.4375 26C71.4375 28.4853 73.4522 30.5 75.9375 30.5V21.5ZM85.3637 30.6688C87.8415 30.8613 90.0062 29.0087 90.1987 26.5309C90.3912 24.053 88.5386 21.8883 86.0607 21.6958L85.3637 30.6688ZM96.0599 23.2687C93.6428 22.6904 91.2146 24.181 90.6363 26.598C90.058 29.0151 91.5486 31.4433 93.9657 32.0216L96.0599 23.2687ZM102.244 34.7096C104.539 35.6616 107.172 34.5723 108.124 32.2766C109.076 29.9809 107.987 27.3481 105.691 26.3961L102.244 34.7096ZM114.708 30.9992C112.591 29.6986 109.819 30.3612 108.519 32.479C107.218 34.5969 107.881 37.368 109.999 38.6685L114.708 30.9992ZM117.043 43.795C118.932 45.4099 121.773 45.1877 123.388 43.2986C125.003 41.4096 124.78 38.569 122.891 36.9541L117.043 43.795ZM130.046 44.1086C128.431 42.2195 125.59 41.9973 123.701 43.6122C121.812 45.2271 121.59 48.0677 123.205 49.9568L130.046 44.1086ZM128.331 57.0013C129.632 59.1191 132.403 59.7816 134.521 58.4811C136.639 57.1806 137.301 54.4094 136.001 52.2916L128.331 57.0013ZM140.604 61.309C139.652 59.0133 137.019 57.924 134.723 58.876C132.428 59.828 131.338 62.4608 132.29 64.7565L140.604 61.309ZM134.978 73.0343C135.557 75.4514 137.985 76.942 140.402 76.3637C142.819 75.7854 144.31 73.3572 143.731 70.9401L134.978 73.0343ZM145.304 80.9393C145.112 78.4615 142.947 76.6088 140.469 76.8013C137.991 76.9938 136.139 79.1585 136.331 81.6364L145.304 80.9393ZM136.5 91.375C136.5 93.8603 138.515 95.875 141 95.875C143.485 95.875 145.5 93.8603 145.5 91.375H136.5ZM145.5 102.125C145.5 99.6397 143.485 97.625 141 97.625C138.515 97.625 136.5 99.6397 136.5 102.125H145.5ZM136.5 112.875C136.5 115.36 138.515 117.375 141 117.375C143.485 117.375 145.5 115.36 145.5 112.875H136.5ZM145.5 123.625C145.5 121.14 143.485 119.125 141 119.125C138.515 119.125 136.5 121.14 136.5 123.625H145.5ZM136.5 134.375C136.5 136.86 138.515 138.875 141 138.875C143.485 138.875 145.5 136.86 145.5 134.375H136.5ZM145.5 145.125C145.5 142.64 143.485 140.625 141 140.625C138.515 140.625 136.5 142.64 136.5 145.125H145.5ZM136.5 155.875C136.5 158.36 138.515 160.375 141 160.375C143.485 160.375 145.5 158.36 145.5 155.875H136.5ZM145.5 166.625C145.5 164.14 143.485 162.125 141 162.125C138.515 162.125 136.5 164.14 136.5 166.625H145.5ZM15.1875 30.5H25.3125V21.5H15.1875V30.5ZM35.4375 30.5H45.5625V21.5H35.4375V30.5ZM55.6875 30.5H65.8125V21.5H55.6875V30.5ZM75.9375 30.5H81V21.5H75.9375V30.5ZM81 30.5C82.4694 30.5 83.9246 30.557 85.3637 30.6688L86.0607 21.6958C84.39 21.566 82.7023 21.5 81 21.5V30.5ZM93.9657 32.0216C96.8168 32.7038 99.5823 33.606 102.244 34.7096L105.691 26.3961C102.595 25.1122 99.3772 24.0623 96.0599 23.2687L93.9657 32.0216ZM109.999 38.6685C112.482 40.1937 114.837 41.9092 117.043 43.795L122.891 36.9541C120.33 34.7644 117.595 32.7716 114.708 30.9992L109.999 38.6685ZM123.205 49.9568C125.091 52.1627 126.806 54.5176 128.331 57.0013L136.001 52.2916C134.228 49.4054 132.236 46.6699 130.046 44.1086L123.205 49.9568ZM132.29 64.7565C133.394 67.4177 134.296 70.1832 134.978 73.0343L143.731 70.9401C142.938 67.6228 141.888 64.405 140.604 61.309L132.29 64.7565ZM136.331 81.6364C136.443 83.0754 136.5 84.5306 136.5 86H145.5C145.5 84.2977 145.434 82.61 145.304 80.9393L136.331 81.6364ZM136.5 86V91.375H145.5V86H136.5ZM136.5 102.125V112.875H145.5V102.125H136.5ZM136.5 123.625V134.375H145.5V123.625H136.5ZM136.5 145.125V155.875H145.5V145.125H136.5ZM136.5 166.625V172H145.5V166.625H136.5Z" fill="black"/>
</svg>
