<svg width="163" height="196" viewBox="0 0 163 196" fill="none" xmlns="http://www.w3.org/2000/svg">
<g filter="url(#filter0_d_2_39)">
<path d="M13.5 5C13.5 2.51472 11.4853 0.5 9 0.5C6.51472 0.5 4.5 2.51472 4.5 5H13.5ZM159 162L114 136.019V187.981L159 162ZM4.5 9.85C4.5 12.3353 6.51472 14.35 9 14.35C11.4853 14.35 13.5 12.3353 13.5 9.85H4.5ZM13.5 19.55C13.5 17.0647 11.4853 15.05 9 15.05C6.51472 15.05 4.5 17.0647 4.5 19.55H13.5ZM4.5 29.25C4.5 31.7353 6.51472 33.75 9 33.75C11.4853 33.75 13.5 31.7353 13.5 29.25H4.5ZM13.5 38.95C13.5 36.4647 11.4853 34.45 9 34.45C6.51472 34.45 4.5 36.4647 4.5 38.95H13.5ZM4.5 48.65C4.5 51.1353 6.51472 53.15 9 53.15C11.4853 53.15 13.5 51.1353 13.5 48.65H4.5ZM13.5 58.35C13.5 55.8647 11.4853 53.85 9 53.85C6.51472 53.85 4.5 55.8647 4.5 58.35H13.5ZM4.5 68.05C4.5 70.5353 6.51472 72.55 9 72.55C11.4853 72.55 13.5 70.5353 13.5 68.05H4.5ZM13.5 77.75C13.5 75.2647 11.4853 73.25 9 73.25C6.51472 73.25 4.5 75.2647 4.5 77.75H13.5ZM4.5 87.45C4.5 89.9353 6.51472 91.95 9 91.95C11.4853 91.95 13.5 89.9353 13.5 87.45H4.5ZM13.5 97.15C13.5 94.6647 11.4853 92.65 9 92.65C6.51472 92.65 4.5 94.6647 4.5 97.15H13.5ZM4.69584 107.061C4.88833 109.539 7.05305 111.391 9.53086 111.199C12.0087 111.006 13.8613 108.841 13.6688 106.364L4.69584 107.061ZM15.0216 114.966C14.4433 112.549 12.0151 111.058 9.59805 111.636C7.18098 112.215 5.69036 114.643 6.26865 117.06L15.0216 114.966ZM9.39607 126.691C10.3481 128.987 12.9809 130.076 15.2766 129.124C17.5723 128.172 18.6616 125.539 17.7096 123.244L9.39607 126.691ZM21.6685 130.999C20.368 128.881 17.5969 128.218 15.479 129.519C13.3612 130.819 12.6986 133.591 13.9992 135.708L21.6685 130.999ZM19.9541 143.891C21.569 145.78 24.4096 146.003 26.2986 144.388C28.1877 142.773 28.4099 139.932 26.795 138.043L19.9541 143.891ZM32.9568 144.205C31.0677 142.59 28.2271 142.812 26.6122 144.701C24.9973 146.59 25.2195 149.431 27.1086 151.046L32.9568 144.205ZM35.2916 157.001C37.4094 158.301 40.1806 157.639 41.4811 155.521C42.7816 153.403 42.1191 150.632 40.0013 149.331L35.2916 157.001ZM47.7565 153.29C45.4608 152.338 42.828 153.428 41.876 155.723C40.924 158.019 42.0133 160.652 44.309 161.604L47.7565 153.29ZM53.9401 164.731C56.3572 165.31 58.7854 163.819 59.3637 161.402C59.942 158.985 58.4514 156.557 56.0343 155.978L53.9401 164.731ZM64.6364 157.331C62.1585 157.139 59.9938 158.991 59.8013 161.469C59.6088 163.947 61.4615 166.112 63.9393 166.304L64.6364 157.331ZM73.5 166.5C75.9853 166.5 78 164.485 78 162C78 159.515 75.9853 157.5 73.5 157.5V166.5ZM82.5 157.5C80.0147 157.5 78 159.515 78 162C78 164.485 80.0147 166.5 82.5 166.5V157.5ZM91.5 166.5C93.9853 166.5 96 164.485 96 162C96 159.515 93.9853 157.5 91.5 157.5V166.5ZM100.5 157.5C98.0147 157.5 96 159.515 96 162C96 164.485 98.0147 166.5 100.5 166.5V157.5ZM109.5 166.5C111.985 166.5 114 164.485 114 162C114 159.515 111.985 157.5 109.5 157.5V166.5ZM118.5 157.5C116.015 157.5 114 159.515 114 162C114 164.485 116.015 166.5 118.5 166.5V157.5ZM127.5 166.5C129.985 166.5 132 164.485 132 162C132 159.515 129.985 157.5 127.5 157.5V166.5ZM136.5 157.5C134.015 157.5 132 159.515 132 162C132 164.485 134.015 166.5 136.5 166.5V157.5ZM145.5 166.5C147.985 166.5 150 164.485 150 162C150 159.515 147.985 157.5 145.5 157.5V166.5ZM154.5 157.5C152.015 157.5 150 159.515 150 162C150 164.485 152.015 166.5 154.5 166.5V157.5ZM4.5 5V9.85H13.5V5H4.5ZM4.5 19.55V29.25H13.5V19.55H4.5ZM4.5 38.95V48.65H13.5V38.95H4.5ZM4.5 58.35V68.05H13.5V58.35H4.5ZM4.5 77.75V87.45H13.5V77.75H4.5ZM4.5 97.15V102H13.5V97.15H4.5ZM4.5 102C4.5 103.702 4.56604 105.39 4.69584 107.061L13.6688 106.364C13.557 104.925 13.5 103.469 13.5 102H4.5ZM6.26865 117.06C7.06233 120.377 8.1122 123.595 9.39607 126.691L17.7096 123.244C16.606 120.582 15.7038 117.817 15.0216 114.966L6.26865 117.06ZM13.9992 135.708C15.7716 138.595 17.7644 141.33 19.9541 143.891L26.795 138.043C24.9092 135.837 23.1937 133.482 21.6685 130.999L13.9992 135.708ZM27.1086 151.046C29.6699 153.236 32.4054 155.228 35.2916 157.001L40.0013 149.331C37.5176 147.806 35.1627 146.091 32.9568 144.205L27.1086 151.046ZM44.309 161.604C47.405 162.888 50.6228 163.938 53.9401 164.731L56.0343 155.978C53.1832 155.296 50.4177 154.394 47.7565 153.29L44.309 161.604ZM63.9393 166.304C65.61 166.434 67.2977 166.5 69 166.5V157.5C67.5306 157.5 66.0754 157.443 64.6364 157.331L63.9393 166.304ZM69 166.5H73.5V157.5H69V166.5ZM82.5 166.5H91.5V157.5H82.5V166.5ZM100.5 166.5H109.5V157.5H100.5V166.5ZM118.5 166.5H127.5V157.5H118.5V166.5ZM136.5 166.5H145.5V157.5H136.5V166.5Z" fill="black"/>
</g>
<defs>
<filter id="filter0_d_2_39" x="0.5" y="0.5" width="162.5" height="195.481" filterUnits="userSpaceOnUse" color-interpolation-filters="sRGB">
<feFlood flood-opacity="0" result="BackgroundImageFix"/>
<feColorMatrix in="SourceAlpha" type="matrix" values="0 0 0 0 0 0 0 0 0 0 0 0 0 0 0 0 0 0 127 0" result="hardAlpha"/>
<feOffset dy="4"/>
<feGaussianBlur stdDeviation="2"/>
<feComposite in2="hardAlpha" operator="out"/>
<feColorMatrix type="matrix" values="0 0 0 0 0 0 0 0 0 0 0 0 0 0 0 0 0 0 0.25 0"/>
<feBlend mode="normal" in2="BackgroundImageFix" result="effect1_dropShadow_2_39"/>
<feBlend mode="normal" in="SourceGraphic" in2="effect1_dropShadow_2_39" result="shape"/>
</filter>
</defs>
</svg>
