<svg width="51" height="54" viewBox="0 0 51 54" fill="none" xmlns="http://www.w3.org/2000/svg">
<path d="M20.25 0.938262C20.5786 1.339 20.7799 1.82883 20.828 2.34483C20.8761 2.86083 20.7689 3.37943 20.52 3.83401C18.5677 7.41606 17.5486 11.432 17.5568 15.5115C17.5568 29.0824 28.62 40.0714 42.255 40.0714C44.037 40.0691 45.7616 39.8891 47.4289 39.5314C47.9389 39.4223 48.4698 39.4652 48.9557 39.6547C49.4416 39.8443 49.8612 40.1722 50.1626 40.5979C50.4815 41.0409 50.6442 41.5772 50.6253 42.1227C50.6064 42.6682 50.4068 43.192 50.058 43.6118C47.4108 46.8632 44.0714 49.4829 40.2833 51.2801C36.4952 53.0772 32.3538 54.0064 28.161 54C12.6022 54 0 41.4653 0 26.0213C0 14.3978 7.13475 4.42801 17.2935 0.202512C17.7994 -0.0124757 18.3615 -0.0569625 18.8948 0.0757741C19.4282 0.208511 19.9039 0.511257 20.25 0.938262ZM16.3958 4.42464C12.4898 6.52022 9.22444 9.63478 6.94667 13.4374C4.6689 17.24 3.46379 21.5886 3.45937 26.0213C3.45937 39.5888 14.526 50.5778 28.161 50.5778C31.426 50.5827 34.6596 49.9403 37.6749 48.6879C40.6901 47.4355 43.4272 45.5977 45.7279 43.281C44.5894 43.4228 43.4318 43.4936 42.255 43.4936C26.6963 43.4936 14.0974 30.9589 14.0974 15.5149C14.0974 11.5763 14.9141 7.82664 16.3958 4.42464Z" fill="black"/>
</svg>
