<svg width="52" height="296" viewBox="0 0 52 296" fill="none" xmlns="http://www.w3.org/2000/svg">
<path d="M30.5 5C30.5 2.51472 28.4853 0.5 26 0.5C23.5147 0.5 21.5 2.51472 21.5 5L30.5 5ZM26 296L51.9808 251L0.0192492 251L26 296ZM21.5 9.85C21.5 12.3353 23.5147 14.35 26 14.35C28.4853 14.35 30.5 12.3353 30.5 9.85L21.5 9.85ZM30.5 19.55C30.5 17.0647 28.4853 15.05 26 15.05C23.5147 15.05 21.5 17.0647 21.5 19.55L30.5 19.55ZM21.5 29.25C21.5 31.7353 23.5147 33.75 26 33.75C28.4853 33.75 30.5 31.7353 30.5 29.25L21.5 29.25ZM30.5 38.95C30.5 36.4647 28.4853 34.45 26 34.45C23.5147 34.45 21.5 36.4647 21.5 38.95L30.5 38.95ZM21.5 48.65C21.5 51.1353 23.5147 53.15 26 53.15C28.4853 53.15 30.5 51.1353 30.5 48.65L21.5 48.65ZM30.5 58.35C30.5 55.8647 28.4853 53.85 26 53.85C23.5147 53.85 21.5 55.8647 21.5 58.35L30.5 58.35ZM21.5 68.05C21.5 70.5353 23.5147 72.55 26 72.55C28.4853 72.55 30.5 70.5353 30.5 68.05L21.5 68.05ZM30.5 77.75C30.5 75.2647 28.4853 73.25 26 73.25C23.5147 73.25 21.5 75.2647 21.5 77.75L30.5 77.75ZM21.5 87.45C21.5 89.9353 23.5147 91.95 26 91.95C28.4853 91.95 30.5 89.9353 30.5 87.45L21.5 87.45ZM30.5 97.15C30.5 94.6647 28.4853 92.65 26 92.65C23.5147 92.65 21.5 94.6647 21.5 97.15L30.5 97.15ZM21.5 106.85C21.5 109.335 23.5147 111.35 26 111.35C28.4853 111.35 30.5 109.335 30.5 106.85L21.5 106.85ZM30.5 116.55C30.5 114.065 28.4853 112.05 26 112.05C23.5147 112.05 21.5 114.065 21.5 116.55L30.5 116.55ZM21.5 126.25C21.5 128.735 23.5147 130.75 26 130.75C28.4853 130.75 30.5 128.735 30.5 126.25L21.5 126.25ZM30.5 135.95C30.5 133.465 28.4853 131.45 26 131.45C23.5147 131.45 21.5 133.465 21.5 135.95L30.5 135.95ZM21.5 145.65C21.5 148.135 23.5147 150.15 26 150.15C28.4853 150.15 30.5 148.135 30.5 145.65L21.5 145.65ZM30.5 155.35C30.5 152.865 28.4853 150.85 26 150.85C23.5147 150.85 21.5 152.865 21.5 155.35L30.5 155.35ZM21.5 165.05C21.5 167.535 23.5147 169.55 26 169.55C28.4853 169.55 30.5 167.535 30.5 165.05L21.5 165.05ZM30.5 174.75C30.5 172.265 28.4853 170.25 26 170.25C23.5147 170.25 21.5 172.265 21.5 174.75L30.5 174.75ZM21.5 184.45C21.5 186.935 23.5147 188.95 26 188.95C28.4853 188.95 30.5 186.935 30.5 184.45L21.5 184.45ZM30.5 194.15C30.5 191.665 28.4853 189.65 26 189.65C23.5147 189.65 21.5 191.665 21.5 194.15L30.5 194.15ZM21.5 203.85C21.5 206.335 23.5147 208.35 26 208.35C28.4853 208.35 30.5 206.335 30.5 203.85L21.5 203.85ZM30.5 213.55C30.5 211.065 28.4853 209.05 26 209.05C23.5147 209.05 21.5 211.065 21.5 213.55L30.5 213.55ZM21.5 223.25C21.5 225.735 23.5147 227.75 26 227.75C28.4853 227.75 30.5 225.735 30.5 223.25L21.5 223.25ZM30.5 232.95C30.5 230.465 28.4853 228.45 26 228.45C23.5147 228.45 21.5 230.465 21.5 232.95L30.5 232.95ZM21.5 242.65C21.5 245.135 23.5147 247.15 26 247.15C28.4853 247.15 30.5 245.135 30.5 242.65L21.5 242.65ZM30.5 252.35C30.5 249.865 28.4853 247.85 26 247.85C23.5147 247.85 21.5 249.865 21.5 252.35L30.5 252.35ZM21.5 262.05C21.5 264.535 23.5147 266.55 26 266.55C28.4853 266.55 30.5 264.535 30.5 262.05L21.5 262.05ZM30.5 271.75C30.5 269.265 28.4853 267.25 26 267.25C23.5147 267.25 21.5 269.265 21.5 271.75L30.5 271.75ZM21.5 281.45C21.5 283.935 23.5147 285.95 26 285.95C28.4853 285.95 30.5 283.935 30.5 281.45L21.5 281.45ZM30.5 291.15C30.5 288.665 28.4853 286.65 26 286.65C23.5147 286.65 21.5 288.665 21.5 291.15L30.5 291.15ZM21.5 5L21.5 9.85L30.5 9.85L30.5 5L21.5 5ZM21.5 19.55L21.5 29.25L30.5 29.25L30.5 19.55L21.5 19.55ZM21.5 38.95L21.5 48.65L30.5 48.65L30.5 38.95L21.5 38.95ZM21.5 58.35L21.5 68.05L30.5 68.05L30.5 58.35L21.5 58.35ZM21.5 77.75L21.5 87.45L30.5 87.45L30.5 77.75L21.5 77.75ZM21.5 97.15L21.5 106.85L30.5 106.85L30.5 97.15L21.5 97.15ZM21.5 116.55L21.5 126.25L30.5 126.25L30.5 116.55L21.5 116.55ZM21.5 135.95L21.5 145.65L30.5 145.65L30.5 135.95L21.5 135.95ZM21.5 155.35L21.5 165.05L30.5 165.05L30.5 155.35L21.5 155.35ZM21.5 174.75L21.5 184.45L30.5 184.45L30.5 174.75L21.5 174.75ZM21.5 194.15L21.5 203.85L30.5 203.85L30.5 194.15L21.5 194.15ZM21.5 213.55L21.5 223.25L30.5 223.25L30.5 213.55L21.5 213.55ZM21.5 232.95L21.5 242.65L30.5 242.65L30.5 232.95L21.5 232.95ZM21.5 252.35L21.5 262.05L30.5 262.05L30.5 252.35L21.5 252.35ZM21.5 271.75L21.5 281.45L30.5 281.45L30.5 271.75L21.5 271.75Z" fill="black"/>
</svg>
