<svg width="425" height="455" viewBox="0 0 425 455" fill="none" xmlns="http://www.w3.org/2000/svg">
<path d="M9.5 5C9.5 2.51472 7.48528 0.5 5 0.5C2.51472 0.5 0.5 2.51472 0.5 5H9.5ZM425 429L380 403.019V454.981L425 429ZM0.5 10.0556C0.5 12.5408 2.51472 14.5556 5 14.5556C7.48528 14.5556 9.5 12.5408 9.5 10.0556H0.5ZM9.5 20.1667C9.5 17.6814 7.48528 15.6667 5 15.6667C2.51472 15.6667 0.5 17.6814 0.5 20.1667H9.5ZM0.5 30.2778C0.5 32.7631 2.51472 34.7778 5 34.7778C7.48528 34.7778 9.5 32.7631 9.5 30.2778H0.5ZM9.5 40.3889C9.5 37.9036 7.48528 35.8889 5 35.8889C2.51472 35.8889 0.5 37.9036 0.5 40.3889H9.5ZM0.5 50.5C0.5 52.9853 2.51472 55 5 55C7.48528 55 9.5 52.9853 9.5 50.5H0.5ZM9.5 60.6111C9.5 58.1258 7.48528 56.1111 5 56.1111C2.51472 56.1111 0.5 58.1258 0.5 60.6111H9.5ZM0.5 70.7222C0.5 73.2075 2.51472 75.2222 5 75.2222C7.48528 75.2222 9.5 73.2075 9.5 70.7222H0.5ZM9.5 80.8333C9.5 78.3481 7.48528 76.3333 5 76.3333C2.51472 76.3333 0.5 78.3481 0.5 80.8333H9.5ZM0.5 90.9444C0.5 93.4297 2.51472 95.4444 5 95.4444C7.48528 95.4444 9.5 93.4297 9.5 90.9444H0.5ZM9.5 101.056C9.5 98.5703 7.48528 96.5556 5 96.5556C2.51472 96.5556 0.5 98.5703 0.5 101.056H9.5ZM0.5 111.167C0.5 113.652 2.51472 115.667 5 115.667C7.48528 115.667 9.5 113.652 9.5 111.167H0.5ZM9.5 121.278C9.5 118.793 7.48528 116.778 5 116.778C2.51472 116.778 0.5 118.793 0.5 121.278H9.5ZM0.5 131.389C0.5 133.874 2.51472 135.889 5 135.889C7.48528 135.889 9.5 133.874 9.5 131.389H0.5ZM9.5 141.5C9.5 139.015 7.48528 137 5 137C2.51472 137 0.5 139.015 0.5 141.5H9.5ZM0.5 151.611C0.5 154.096 2.51472 156.111 5 156.111C7.48528 156.111 9.5 154.096 9.5 151.611H0.5ZM9.5 161.722C9.5 159.237 7.48528 157.222 5 157.222C2.51472 157.222 0.5 159.237 0.5 161.722H9.5ZM0.5 171.833C0.5 174.319 2.51472 176.333 5 176.333C7.48528 176.333 9.5 174.319 9.5 171.833H0.5ZM9.5 181.944C9.5 179.459 7.48528 177.444 5 177.444C2.51472 177.444 0.5 179.459 0.5 181.944H9.5ZM0.5 192.056C0.5 194.541 2.51472 196.556 5 196.556C7.48528 196.556 9.5 194.541 9.5 192.056H0.5ZM9.5 202.167C9.5 199.681 7.48528 197.667 5 197.667C2.51472 197.667 0.5 199.681 0.5 202.167H9.5ZM0.5 212.278C0.5 214.763 2.51472 216.778 5 216.778C7.48528 216.778 9.5 214.763 9.5 212.278H0.5ZM9.5 222.389C9.5 219.904 7.48528 217.889 5 217.889C2.51472 217.889 0.5 219.904 0.5 222.389H9.5ZM0.5 232.5C0.5 234.985 2.51472 237 5 237C7.48528 237 9.5 234.985 9.5 232.5H0.5ZM9.5 242.611C9.5 240.126 7.48528 238.111 5 238.111C2.51472 238.111 0.5 240.126 0.5 242.611H9.5ZM0.5 252.722C0.5 255.208 2.51472 257.222 5 257.222C7.48528 257.222 9.5 255.208 9.5 252.722H0.5ZM9.5 262.833C9.5 260.348 7.48528 258.333 5 258.333C2.51472 258.333 0.5 260.348 0.5 262.833H9.5ZM0.5 272.944C0.5 275.43 2.51472 277.444 5 277.444C7.48528 277.444 9.5 275.43 9.5 272.944H0.5ZM9.5 283.056C9.5 280.57 7.48528 278.556 5 278.556C2.51472 278.556 0.5 280.57 0.5 283.056H9.5ZM0.5 293.167C0.5 295.652 2.51472 297.667 5 297.667C7.48528 297.667 9.5 295.652 9.5 293.167H0.5ZM9.5 303.278C9.5 300.793 7.48528 298.778 5 298.778C2.51472 298.778 0.5 300.793 0.5 303.278H9.5ZM0.5 313.389C0.5 315.874 2.51472 317.889 5 317.889C7.48528 317.889 9.5 315.874 9.5 313.389H0.5ZM9.5 323.5C9.5 321.015 7.48528 319 5 319C2.51472 319 0.5 321.015 0.5 323.5H9.5ZM0.5 333.611C0.5 336.096 2.51472 338.111 5 338.111C7.48528 338.111 9.5 336.096 9.5 333.611H0.5ZM9.5 343.722C9.5 341.237 7.48528 339.222 5 339.222C2.51472 339.222 0.5 341.237 0.5 343.722H9.5ZM0.5 353.833C0.5 356.319 2.51472 358.333 5 358.333C7.48528 358.333 9.5 356.319 9.5 353.833H0.5ZM9.5 363.945C9.5 361.459 7.48528 359.445 5 359.445C2.51472 359.445 0.5 361.459 0.5 363.945H9.5ZM0.695837 374.061C0.888333 376.539 3.05305 378.391 5.53086 378.199C8.00868 378.006 9.8613 375.841 9.6688 373.364L0.695837 374.061ZM11.0216 381.966C10.4433 379.549 8.01511 378.058 5.59805 378.636C3.18098 379.215 1.69036 381.643 2.26865 384.06L11.0216 381.966ZM5.39607 393.691C6.34806 395.987 8.98086 397.076 11.2766 396.124C13.5723 395.172 14.6616 392.539 13.7096 390.244L5.39607 393.691ZM17.6685 397.999C16.368 395.881 13.5969 395.218 11.479 396.519C9.36119 397.819 8.69864 400.591 9.99918 402.708L17.6685 397.999ZM15.9541 410.891C17.569 412.781 20.4096 413.003 22.2986 411.388C24.1877 409.773 24.4099 406.932 22.795 405.043L15.9541 410.891ZM28.9568 411.205C27.0677 409.59 24.2271 409.812 22.6122 411.701C20.9973 413.59 21.2195 416.431 23.1086 418.046L28.9568 411.205ZM31.2916 424.001C33.4094 425.301 36.1806 424.639 37.4811 422.521C38.7816 420.403 38.1191 417.632 36.0013 416.331L31.2916 424.001ZM43.7565 420.29C41.4608 419.338 38.828 420.428 37.876 422.723C36.924 425.019 38.0133 427.652 40.309 428.604L43.7565 420.29ZM49.9401 431.731C52.3572 432.31 54.7854 430.819 55.3637 428.402C55.942 425.985 54.4514 423.557 52.0343 422.978L49.9401 431.731ZM60.6363 424.331C58.1585 424.139 55.9938 425.991 55.8013 428.469C55.6088 430.947 57.4614 433.112 59.9393 433.304L60.6363 424.331ZM70 433.5C72.4853 433.5 74.5 431.485 74.5 429C74.5 426.515 72.4853 424.5 70 424.5V433.5ZM80 424.5C77.5147 424.5 75.5 426.515 75.5 429C75.5 431.485 77.5147 433.5 80 433.5V424.5ZM90 433.5C92.4853 433.5 94.5 431.485 94.5 429C94.5 426.515 92.4853 424.5 90 424.5V433.5ZM100 424.5C97.5147 424.5 95.5 426.515 95.5 429C95.5 431.485 97.5147 433.5 100 433.5V424.5ZM110 433.5C112.485 433.5 114.5 431.485 114.5 429C114.5 426.515 112.485 424.5 110 424.5V433.5ZM120 424.5C117.515 424.5 115.5 426.515 115.5 429C115.5 431.485 117.515 433.5 120 433.5V424.5ZM130 433.5C132.485 433.5 134.5 431.485 134.5 429C134.5 426.515 132.485 424.5 130 424.5V433.5ZM140 424.5C137.515 424.5 135.5 426.515 135.5 429C135.5 431.485 137.515 433.5 140 433.5V424.5ZM150 433.5C152.485 433.5 154.5 431.485 154.5 429C154.5 426.515 152.485 424.5 150 424.5V433.5ZM160 424.5C157.515 424.5 155.5 426.515 155.5 429C155.5 431.485 157.515 433.5 160 433.5V424.5ZM170 433.5C172.485 433.5 174.5 431.485 174.5 429C174.5 426.515 172.485 424.5 170 424.5V433.5ZM180 424.5C177.515 424.5 175.5 426.515 175.5 429C175.5 431.485 177.515 433.5 180 433.5V424.5ZM190 433.5C192.485 433.5 194.5 431.485 194.5 429C194.5 426.515 192.485 424.5 190 424.5V433.5ZM200 424.5C197.515 424.5 195.5 426.515 195.5 429C195.5 431.485 197.515 433.5 200 433.5V424.5ZM210 433.5C212.485 433.5 214.5 431.485 214.5 429C214.5 426.515 212.485 424.5 210 424.5V433.5ZM220 424.5C217.515 424.5 215.5 426.515 215.5 429C215.5 431.485 217.515 433.5 220 433.5V424.5ZM230 433.5C232.485 433.5 234.5 431.485 234.5 429C234.5 426.515 232.485 424.5 230 424.5V433.5ZM240 424.5C237.515 424.5 235.5 426.515 235.5 429C235.5 431.485 237.515 433.5 240 433.5V424.5ZM250 433.5C252.485 433.5 254.5 431.485 254.5 429C254.5 426.515 252.485 424.5 250 424.5V433.5ZM260 424.5C257.515 424.5 255.5 426.515 255.5 429C255.5 431.485 257.515 433.5 260 433.5V424.5ZM270 433.5C272.485 433.5 274.5 431.485 274.5 429C274.5 426.515 272.485 424.5 270 424.5V433.5ZM280 424.5C277.515 424.5 275.5 426.515 275.5 429C275.5 431.485 277.515 433.5 280 433.5V424.5ZM290 433.5C292.485 433.5 294.5 431.485 294.5 429C294.5 426.515 292.485 424.5 290 424.5V433.5ZM300 424.5C297.515 424.5 295.5 426.515 295.5 429C295.5 431.485 297.515 433.5 300 433.5V424.5ZM310 433.5C312.485 433.5 314.5 431.485 314.5 429C314.5 426.515 312.485 424.5 310 424.5V433.5ZM320 424.5C317.515 424.5 315.5 426.515 315.5 429C315.5 431.485 317.515 433.5 320 433.5V424.5ZM330 433.5C332.485 433.5 334.5 431.485 334.5 429C334.5 426.515 332.485 424.5 330 424.5V433.5ZM340 424.5C337.515 424.5 335.5 426.515 335.5 429C335.5 431.485 337.515 433.5 340 433.5V424.5ZM350 433.5C352.485 433.5 354.5 431.485 354.5 429C354.5 426.515 352.485 424.5 350 424.5V433.5ZM360 424.5C357.515 424.5 355.5 426.515 355.5 429C355.5 431.485 357.515 433.5 360 433.5V424.5ZM370 433.5C372.485 433.5 374.5 431.485 374.5 429C374.5 426.515 372.485 424.5 370 424.5V433.5ZM380 424.5C377.515 424.5 375.5 426.515 375.5 429C375.5 431.485 377.515 433.5 380 433.5V424.5ZM390 433.5C392.485 433.5 394.5 431.485 394.5 429C394.5 426.515 392.485 424.5 390 424.5V433.5ZM400 424.5C397.515 424.5 395.5 426.515 395.5 429C395.5 431.485 397.515 433.5 400 433.5V424.5ZM410 433.5C412.485 433.5 414.5 431.485 414.5 429C414.5 426.515 412.485 424.5 410 424.5V433.5ZM420 424.5C417.515 424.5 415.5 426.515 415.5 429C415.5 431.485 417.515 433.5 420 433.5V424.5ZM0.5 5V10.0556H9.5V5H0.5ZM0.5 20.1667V30.2778H9.5V20.1667H0.5ZM0.5 40.3889V50.5H9.5V40.3889H0.5ZM0.5 60.6111V70.7222H9.5V60.6111H0.5ZM0.5 80.8333V90.9444H9.5V80.8333H0.5ZM0.5 101.056V111.167H9.5V101.056H0.5ZM0.5 121.278V131.389H9.5V121.278H0.5ZM0.5 141.5V151.611H9.5V141.5H0.5ZM0.5 161.722V171.833H9.5V161.722H0.5ZM0.5 181.944V192.056H9.5V181.944H0.5ZM0.5 202.167V212.278H9.5V202.167H0.5ZM0.5 222.389V232.5H9.5V222.389H0.5ZM0.5 242.611V252.722H9.5V242.611H0.5ZM0.5 262.833V272.944H9.5V262.833H0.5ZM0.5 283.056V293.167H9.5V283.056H0.5ZM0.5 303.278V313.389H9.5V303.278H0.5ZM0.5 323.5V333.611H9.5V323.5H0.5ZM0.5 343.722V353.833H9.5V343.722H0.5ZM0.5 363.945V369H9.5V363.945H0.5ZM0.5 369C0.5 370.702 0.566044 372.39 0.695837 374.061L9.6688 373.364C9.55701 371.925 9.5 370.469 9.5 369H0.5ZM2.26865 384.06C3.06233 387.377 4.1122 390.595 5.39607 393.691L13.7096 390.244C12.606 387.582 11.7038 384.817 11.0216 381.966L2.26865 384.06ZM9.99918 402.708C11.7716 405.595 13.7644 408.33 15.9541 410.891L22.795 405.043C20.9092 402.837 19.1937 400.482 17.6685 397.999L9.99918 402.708ZM23.1086 418.046C25.6699 420.236 28.4054 422.228 31.2916 424.001L36.0013 416.331C33.5176 414.806 31.1627 413.091 28.9568 411.205L23.1086 418.046ZM40.309 428.604C43.405 429.888 46.6228 430.938 49.9401 431.731L52.0343 422.978C49.1832 422.296 46.4177 421.394 43.7565 420.29L40.309 428.604ZM59.9393 433.304C61.61 433.434 63.2977 433.5 65 433.5V424.5C63.5306 424.5 62.0754 424.443 60.6363 424.331L59.9393 433.304ZM65 433.5H70V424.5H65V433.5ZM80 433.5H90V424.5H80V433.5ZM100 433.5H110V424.5H100V433.5ZM120 433.5H130V424.5H120V433.5ZM140 433.5H150V424.5H140V433.5ZM160 433.5H170V424.5H160V433.5ZM180 433.5H190V424.5H180V433.5ZM200 433.5H210V424.5H200V433.5ZM220 433.5H230V424.5H220V433.5ZM240 433.5H250V424.5H240V433.5ZM260 433.5H270V424.5H260V433.5ZM280 433.5H290V424.5H280V433.5ZM300 433.5H310V424.5H300V433.5ZM320 433.5H330V424.5H320V433.5ZM340 433.5H350V424.5H340V433.5ZM360 433.5H370V424.5H360V433.5ZM380 433.5H390V424.5H380V433.5ZM400 433.5H410V424.5H400V433.5Z" fill="black"/>
</svg>
