<svg width="450" height="124" viewBox="0 0 450 124" fill="none" xmlns="http://www.w3.org/2000/svg">
<path opacity="0.9" d="M12 6C12 2.68629 9.31371 0 6 0C2.68629 0 0 2.68629 0 6H12ZM450 89L390 54.359V123.641L450 89ZM0 11.75C0 15.0637 2.68629 17.75 6 17.75C9.31371 17.75 12 15.0637 12 11.75H0ZM12 23.25C12 19.9363 9.31371 17.25 6 17.25C2.68629 17.25 0 19.9363 0 23.25H12ZM0.200343 34.1769C0.457004 37.4807 3.34329 39.9508 6.64704 39.6942C9.9508 39.4375 12.421 36.5512 12.1643 33.2475L0.200343 34.1769ZM13.4804 41.6167C12.7094 38.3939 9.47177 36.4064 6.24902 37.1775C3.02626 37.9485 1.03877 41.1861 1.80983 44.4089L13.4804 41.6167ZM5.01048 54.2656C6.2798 57.3266 9.7902 58.779 12.8512 57.5096C15.9121 56.2403 17.3645 52.7299 16.0952 49.6689L5.01048 54.2656ZM19.9468 57.2138C18.2127 54.39 14.5179 53.5066 11.6941 55.2407C8.8703 56.9747 7.9869 60.6696 9.72095 63.4934L19.9468 57.2138ZM15.8139 71.8661C17.9671 74.3849 21.7546 74.6812 24.2733 72.528C26.7921 70.3747 27.0884 66.5873 24.9352 64.0685L15.8139 71.8661ZM30.9315 70.0648C28.4127 67.9116 24.6253 68.2079 22.472 70.7267C20.3188 73.2454 20.6151 77.0328 23.1339 79.1861L30.9315 70.0648ZM31.5066 85.279C34.3304 87.0131 38.0253 86.1297 39.7593 83.3059C41.4934 80.4821 40.61 76.7873 37.7862 75.0532L31.5066 85.279ZM45.331 78.9048C42.2701 77.6355 38.7597 79.0879 37.4904 82.1488C36.221 85.2098 37.6734 88.7202 40.7344 89.9895L45.331 78.9048ZM50.5911 93.1902C53.8139 93.9612 57.0515 91.9737 57.8225 88.751C58.5936 85.5282 56.6061 82.2906 53.3833 81.5196L50.5911 93.1902ZM61.7525 82.8357C58.4488 82.579 55.5625 85.0492 55.3058 88.353C55.0492 91.6567 57.5193 94.543 60.8231 94.7997L61.7525 82.8357ZM71.0526 95C74.3663 95 77.0526 92.3137 77.0526 89C77.0526 85.6863 74.3663 83 71.0526 83V95ZM81.1579 83C77.8442 83 75.1579 85.6863 75.1579 89C75.1579 92.3137 77.8442 95 81.1579 95V83ZM91.2632 95C94.5769 95 97.2632 92.3137 97.2632 89C97.2632 85.6863 94.5769 83 91.2632 83V95ZM101.368 83C98.0547 83 95.3684 85.6863 95.3684 89C95.3684 92.3137 98.0547 95 101.368 95V83ZM111.474 95C114.787 95 117.474 92.3137 117.474 89C117.474 85.6863 114.787 83 111.474 83V95ZM121.579 83C118.265 83 115.579 85.6863 115.579 89C115.579 92.3137 118.265 95 121.579 95V83ZM131.684 95C134.998 95 137.684 92.3137 137.684 89C137.684 85.6863 134.998 83 131.684 83V95ZM141.789 83C138.476 83 135.789 85.6863 135.789 89C135.789 92.3137 138.476 95 141.789 95V83ZM151.895 95C155.208 95 157.895 92.3137 157.895 89C157.895 85.6863 155.208 83 151.895 83V95ZM162 83C158.686 83 156 85.6863 156 89C156 92.3137 158.686 95 162 95V83ZM172.105 95C175.419 95 178.105 92.3137 178.105 89C178.105 85.6863 175.419 83 172.105 83V95ZM182.211 83C178.897 83 176.211 85.6863 176.211 89C176.211 92.3137 178.897 95 182.211 95V83ZM192.316 95C195.629 95 198.316 92.3137 198.316 89C198.316 85.6863 195.629 83 192.316 83V95ZM202.421 83C199.107 83 196.421 85.6863 196.421 89C196.421 92.3137 199.107 95 202.421 95V83ZM212.526 95C215.84 95 218.526 92.3137 218.526 89C218.526 85.6863 215.84 83 212.526 83V95ZM222.632 83C219.318 83 216.632 85.6863 216.632 89C216.632 92.3137 219.318 95 222.632 95V83ZM232.737 95C236.051 95 238.737 92.3137 238.737 89C238.737 85.6863 236.051 83 232.737 83V95ZM242.842 83C239.528 83 236.842 85.6863 236.842 89C236.842 92.3137 239.528 95 242.842 95V83ZM252.947 95C256.261 95 258.947 92.3137 258.947 89C258.947 85.6863 256.261 83 252.947 83V95ZM263.053 83C259.739 83 257.053 85.6863 257.053 89C257.053 92.3137 259.739 95 263.053 95V83ZM273.158 95C276.472 95 279.158 92.3137 279.158 89C279.158 85.6863 276.472 83 273.158 83V95ZM283.263 83C279.949 83 277.263 85.6863 277.263 89C277.263 92.3137 279.949 95 283.263 95V83ZM293.368 95C296.682 95 299.368 92.3137 299.368 89C299.368 85.6863 296.682 83 293.368 83V95ZM303.474 83C300.16 83 297.474 85.6863 297.474 89C297.474 92.3137 300.16 95 303.474 95V83ZM313.579 95C316.893 95 319.579 92.3137 319.579 89C319.579 85.6863 316.893 83 313.579 83V95ZM323.684 83C320.37 83 317.684 85.6863 317.684 89C317.684 92.3137 320.37 95 323.684 95V83ZM333.789 95C337.103 95 339.789 92.3137 339.789 89C339.789 85.6863 337.103 83 333.789 83V95ZM343.895 83C340.581 83 337.895 85.6863 337.895 89C337.895 92.3137 340.581 95 343.895 95V83ZM354 95C357.314 95 360 92.3137 360 89C360 85.6863 357.314 83 354 83V95ZM364.105 83C360.791 83 358.105 85.6863 358.105 89C358.105 92.3137 360.791 95 364.105 95V83ZM374.21 95C377.524 95 380.21 92.3137 380.21 89C380.21 85.6863 377.524 83 374.21 83V95ZM384.316 83C381.002 83 378.316 85.6863 378.316 89C378.316 92.3137 381.002 95 384.316 95V83ZM394.421 95C397.735 95 400.421 92.3137 400.421 89C400.421 85.6863 397.735 83 394.421 83V95ZM404.526 83C401.212 83 398.526 85.6863 398.526 89C398.526 92.3137 401.212 95 404.526 95V83ZM414.631 95C417.945 95 420.631 92.3137 420.631 89C420.631 85.6863 417.945 83 414.631 83V95ZM424.737 83C421.423 83 418.737 85.6863 418.737 89C418.737 92.3137 421.423 95 424.737 95V83ZM434.842 95C438.156 95 440.842 92.3137 440.842 89C440.842 85.6863 438.156 83 434.842 83V95ZM444.947 83C441.633 83 438.947 85.6863 438.947 89C438.947 92.3137 441.633 95 444.947 95V83ZM0 6V11.75H12V6H0ZM0 23.25V29H12V23.25H0ZM0 29C0 30.7411 0.0675504 32.4676 0.200343 34.1769L12.1643 33.2475C12.0555 31.8471 12 30.4306 12 29H0ZM1.80983 44.4089C2.62209 47.8039 3.69656 51.0971 5.01048 54.2656L16.0952 49.6689C15.0217 47.0802 14.144 44.3901 13.4804 41.6167L1.80983 44.4089ZM9.72095 63.4934C11.5345 66.4467 13.5736 69.2455 15.8139 71.8661L24.9352 64.0685C23.1 61.9219 21.4307 59.6303 19.9468 57.2138L9.72095 63.4934ZM23.1339 79.1861C25.7545 81.4264 28.5533 83.4654 31.5066 85.279L37.7862 75.0532C35.3697 73.5693 33.0781 71.9 30.9315 70.0648L23.1339 79.1861ZM40.7344 89.9895C43.9029 91.3034 47.1961 92.3779 50.5911 93.1902L53.3833 81.5196C50.6099 80.856 47.9198 79.9783 45.331 78.9048L40.7344 89.9895ZM60.8231 94.7997C62.5324 94.9324 64.2589 95 66 95V83C64.5694 83 63.1529 82.9445 61.7525 82.8357L60.8231 94.7997ZM66 95H71.0526V83H66V95ZM81.1579 95H91.2632V83H81.1579V95ZM101.368 95H111.474V83H101.368V95ZM121.579 95H131.684V83H121.579V95ZM141.789 95H151.895V83H141.789V95ZM162 95H172.105V83H162V95ZM182.211 95H192.316V83H182.211V95ZM202.421 95H212.526V83H202.421V95ZM222.632 95H232.737V83H222.632V95ZM242.842 95H252.947V83H242.842V95ZM263.053 95H273.158V83H263.053V95ZM283.263 95H293.368V83H283.263V95ZM303.474 95H313.579V83H303.474V95ZM323.684 95H333.789V83H323.684V95ZM343.895 95H354V83H343.895V95ZM364.105 95H374.21V83H364.105V95ZM384.316 95H394.421V83H384.316V95ZM404.526 95H414.631V83H404.526V95ZM424.737 95H434.842V83H424.737V95Z" fill="black"/>
</svg>
