<svg width="53" height="320" viewBox="0 0 53 320" fill="none" xmlns="http://www.w3.org/2000/svg">
<path d="M31.5 5.0148C31.5082 2.52953 29.5001 0.5082 27.0148 0.500024C24.5295 0.491849 22.5082 2.49993 22.5 4.9852L31.5 5.0148ZM25.9638 320L52.0925 275.086L0.131221 274.915L25.9638 320ZM22.4836 9.96774C22.4755 12.453 24.4835 14.4743 26.9688 14.4825C29.4541 14.4907 31.4754 12.4826 31.4836 9.99735L22.4836 9.96774ZM31.4508 19.9624C31.459 17.4772 29.4509 15.4558 26.9656 15.4477C24.4804 15.4395 22.459 17.4476 22.4509 19.9328L31.4508 19.9624ZM22.4181 29.8979C22.4099 32.3832 24.418 34.4045 26.9032 34.4127C29.3885 34.4209 31.4099 32.4128 31.418 29.9275L22.4181 29.8979ZM31.3852 39.8926C31.3934 37.4074 29.3853 35.386 26.9001 35.3778C24.4148 35.3697 22.3935 37.3777 22.3853 39.863L31.3852 39.8926ZM22.3525 49.8281C22.3443 52.3134 24.3524 54.3347 26.8377 54.3429C29.323 54.3511 31.3443 52.343 31.3525 49.8577L22.3525 49.8281ZM31.3197 59.8228C31.3279 57.3375 29.3198 55.3162 26.8345 55.308C24.3492 55.2998 22.3279 57.3079 22.3197 59.7932L31.3197 59.8228ZM22.287 69.7583C22.2788 72.2436 24.2869 74.2649 26.7721 74.2731C29.2574 74.2812 31.2787 72.2732 31.2869 69.7879L22.287 69.7583ZM31.2541 79.753C31.2623 77.2677 29.2542 75.2464 26.769 75.2382C24.2837 75.23 22.2624 77.2381 22.2542 79.7234L31.2541 79.753ZM22.2214 89.6885C22.2132 92.1737 24.2213 94.1951 26.7066 94.2032C29.1918 94.2114 31.2132 92.2033 31.2213 89.7181L22.2214 89.6885ZM31.1886 99.6832C31.1967 97.1979 29.1887 95.1766 26.7034 95.1684C24.2181 95.1602 22.1968 97.1683 22.1886 99.6536L31.1886 99.6832ZM22.1558 109.619C22.1477 112.104 24.1557 114.125 26.641 114.133C29.1263 114.142 31.1476 112.134 31.1558 109.648L22.1558 109.619ZM31.123 119.613C31.1312 117.128 29.1231 115.107 26.6378 115.099C24.1526 115.09 22.1312 117.098 22.1231 119.584L31.123 119.613ZM22.0903 129.549C22.0821 132.034 24.0902 134.055 26.5754 134.064C29.0607 134.072 31.0821 132.064 31.0902 129.578L22.0903 129.549ZM31.0574 139.544C31.0656 137.058 29.0575 135.037 26.5723 135.029C24.087 135.021 22.0657 137.029 22.0575 139.514L31.0574 139.544ZM22.0247 149.479C22.0165 151.964 24.0246 153.986 26.5099 153.994C28.9952 154.002 31.0165 151.994 31.0247 149.509L22.0247 149.479ZM30.9919 159.474C31.0001 156.988 28.992 154.967 26.5067 154.959C24.0214 154.951 22.0001 156.959 21.9919 159.444L30.9919 159.474ZM21.9592 169.409C21.951 171.894 23.9591 173.916 26.4443 173.924C28.9296 173.932 30.9509 171.924 30.9591 169.439L21.9592 169.409ZM30.9263 179.404C30.9345 176.919 28.9264 174.897 26.4412 174.889C23.9559 174.881 21.9346 176.889 21.9264 179.374L30.9263 179.404ZM21.8936 189.339C21.8854 191.825 23.8935 193.846 26.3788 193.854C28.864 193.862 30.8854 191.854 30.8935 189.369L21.8936 189.339ZM30.8608 199.334C30.8689 196.849 28.8609 194.827 26.3756 194.819C23.8903 194.811 21.869 196.819 21.8608 199.304L30.8608 199.334ZM21.828 209.27C21.8199 211.755 23.8279 213.776 26.3132 213.784C28.7985 213.793 30.8198 211.784 30.828 209.299L21.828 209.27ZM30.7952 219.264C30.8034 216.779 28.7953 214.758 26.31 214.749C23.8248 214.741 21.8034 216.749 21.7953 219.235L30.7952 219.264ZM21.7625 229.2C21.7543 231.685 23.7624 233.706 26.2476 233.715C28.7329 233.723 30.7543 231.715 30.7624 229.229L21.7625 229.2ZM30.7296 239.194C30.7378 236.709 28.7297 234.688 26.2445 234.68C23.7592 234.672 21.7379 236.68 21.7297 239.165L30.7296 239.194ZM21.6969 249.13C21.6887 251.615 23.6968 253.637 26.1821 253.645C28.6674 253.653 30.6887 251.645 30.6969 249.16L21.6969 249.13ZM30.6641 259.125C30.6723 256.639 28.6642 254.618 26.1789 254.61C23.6936 254.602 21.6723 256.61 21.6641 259.095L30.6641 259.125ZM21.6314 269.06C21.6232 271.545 23.6313 273.567 26.1165 273.575C28.6018 273.583 30.6231 271.575 30.6313 269.09L21.6314 269.06ZM30.5985 279.055C30.6067 276.57 28.5986 274.548 26.1134 274.54C23.6281 274.532 21.6068 276.54 21.5986 279.025L30.5985 279.055ZM21.5658 288.99C21.5576 291.476 23.5657 293.497 26.051 293.505C28.5362 293.513 30.5576 291.505 30.5657 289.02L21.5658 288.99ZM30.533 298.985C30.5411 296.5 28.5331 294.478 26.0478 294.47C23.5625 294.462 21.5412 296.47 21.533 298.955L30.533 298.985ZM21.5034 307.95C21.4953 310.435 23.5033 312.456 25.9886 312.464C28.4739 312.473 30.4952 310.465 30.5034 307.979L21.5034 307.95ZM30.477 316.003C30.4852 313.518 28.4771 311.496 25.9918 311.488C23.5065 311.48 21.4852 313.488 21.477 315.973L30.477 316.003ZM22.5 4.9852L22.4836 9.96774L31.4836 9.99735L31.5 5.0148L22.5 4.9852ZM22.4509 19.9328L22.4181 29.8979L31.418 29.9275L31.4508 19.9624L22.4509 19.9328ZM22.3853 39.863L22.3525 49.8281L31.3525 49.8577L31.3852 39.8926L22.3853 39.863ZM22.3197 59.7932L22.287 69.7583L31.2869 69.7879L31.3197 59.8228L22.3197 59.7932ZM22.2542 79.7234L22.2214 89.6885L31.2213 89.7181L31.2541 79.753L22.2542 79.7234ZM22.1886 99.6536L22.1558 109.619L31.1558 109.648L31.1886 99.6832L22.1886 99.6536ZM22.1231 119.584L22.0903 129.549L31.0902 129.578L31.123 119.613L22.1231 119.584ZM22.0575 139.514L22.0247 149.479L31.0247 149.509L31.0574 139.544L22.0575 139.514ZM21.9919 159.444L21.9592 169.409L30.9591 169.439L30.9919 159.474L21.9919 159.444ZM21.9264 179.374L21.8936 189.339L30.8935 189.369L30.9263 179.404L21.9264 179.374ZM21.8608 199.304L21.828 209.27L30.828 209.299L30.8608 199.334L21.8608 199.304ZM21.7953 219.235L21.7625 229.2L30.7624 229.229L30.7952 219.264L21.7953 219.235ZM21.7297 239.165L21.6969 249.13L30.6969 249.16L30.7296 239.194L21.7297 239.165ZM21.6641 259.095L21.6314 269.06L30.6313 269.09L30.6641 259.125L21.6641 259.095ZM21.5986 279.025L21.5658 288.99L30.5657 289.02L30.5985 279.055L21.5986 279.025ZM21.533 298.955L21.5166 303.938L30.5166 303.968L30.533 298.985L21.533 298.955ZM21.5166 303.938L21.5034 307.95L30.5034 307.979L30.5166 303.968L21.5166 303.938Z" fill="black"/>
</svg>
